<svg data-v-423bf9ae="" xmlns="http://www.w3.org/2000/svg" viewBox="0 0 544 90" class="iconLeft"><!----><!----><!----><g data-v-423bf9ae="" id="fc255f0e-f8ad-4e63-81a7-959c3a6a9894" fill="black" transform="matrix(4.58015287181561,0,0,4.58015287181561,110.55919246975469,0.2519069064587782)"><path d="M5.81 3.98C5.36 3.92 5.01 3.92 4.49 3.92L1.33 3.92L1.33 13.58L2.87 13.58L2.87 9.77L4.49 9.77C5.01 9.77 5.36 9.77 5.81 9.72C7.21 9.53 8.36 8.55 8.36 6.85C8.36 5.14 7.32 4.17 5.81 3.98ZM5.52 8.47C5.26 8.51 4.93 8.53 4.54 8.53L2.87 8.53L2.87 5.17L4.54 5.17C4.93 5.17 5.26 5.18 5.52 5.22C6.19 5.35 6.73 5.82 6.73 6.85C6.73 7.87 6.19 8.34 5.52 8.47ZM16.07 8.08C15.93 6.78 15.02 5.95 13.43 5.95C12.68 5.95 12.14 6.08 11.55 6.52L11.05 7.38L11.05 3.22L9.51 3.22L9.51 13.58L11.05 13.58L11.05 10.25C11.05 7.92 11.91 7.11 12.98 7.08C14.03 7.07 14.48 7.67 14.55 8.51C14.57 8.89 14.57 9.21 14.57 9.56L14.57 13.58L16.11 13.58L16.11 9.39C16.11 8.79 16.10 8.46 16.07 8.08ZM21.20 5.95C18.69 5.95 17.43 7.69 17.43 9.86C17.43 12.03 18.69 13.78 21.20 13.78C23.69 13.78 24.96 12.03 24.96 9.86C24.96 7.69 23.69 5.95 21.20 5.95ZM21.20 12.66C19.84 12.66 19.05 11.54 19.05 9.86C19.05 8.18 19.84 7.07 21.20 7.07C22.54 7.07 23.32 8.18 23.32 9.86C23.32 11.54 22.54 12.66 21.20 12.66ZM32.89 8.08C32.75 6.78 31.84 5.95 30.24 5.95C29.50 5.95 28.95 6.08 28.36 6.52L27.86 7.38L27.86 6.15L26.32 6.15L26.32 13.58L27.86 13.58L27.86 10.25C27.86 7.92 28.73 7.08 29.79 7.08C30.84 7.08 31.29 7.67 31.36 8.51C31.39 8.89 31.39 9.21 31.39 9.56L31.39 13.58L32.93 13.58L32.93 9.39C32.93 8.79 32.91 8.46 32.89 8.08ZM41.20 9.67C41.20 7.57 40.04 5.95 37.88 5.95C35.74 5.95 34.24 7.53 34.24 9.88C34.24 12.52 35.74 13.78 37.73 13.78C39.35 13.78 40.77 12.94 41.09 11.17L39.54 11.17C39.38 12.11 38.68 12.66 37.79 12.66C36.78 12.66 35.97 12.07 35.84 10.29L41.17 10.29C41.20 10.02 41.20 9.81 41.20 9.67ZM37.83 7.07C38.91 7.07 39.51 7.84 39.62 9.21L35.85 9.21C36.02 7.78 36.78 7.07 37.83 7.07ZM52.60 12.35L47.46 12.35L47.46 9.35L52.07 9.35L52.07 8.13L47.46 8.13L47.46 5.14L52.46 5.14L52.46 3.92L45.92 3.92L45.92 13.58L52.60 13.58ZM57.37 9.80L59.96 6.15L58.20 6.15L56.52 8.83L54.82 6.15L53.02 6.15L55.57 9.81L52.92 13.58L54.68 13.58L56.45 10.78L58.21 13.58L59.99 13.58ZM65.13 5.95C64.37 5.95 63.60 6.16 63.18 6.51L62.62 7.31L62.62 6.15L61.08 6.15L61.08 16.32L62.62 16.32L62.62 12.57L63.11 13.31C63.49 13.61 64.26 13.78 64.88 13.78C66.79 13.78 68.47 12.46 68.47 9.73C68.47 7.56 67.26 5.95 65.13 5.95ZM64.69 12.66C63.71 12.66 62.62 11.98 62.62 10.16L62.62 9.79C62.62 7.80 63.62 7.07 64.76 7.07C66.11 7.07 66.85 8.26 66.85 9.87C66.85 11.72 65.93 12.66 64.69 12.66ZM73.16 5.96C72.79 5.96 72.35 6.12 72.02 6.38L71.39 7.41L71.39 6.15L69.85 6.15L69.85 13.58L71.39 13.58L71.39 9.72C71.39 7.88 72.27 7.15 73.68 7.25L73.68 6.05C73.53 5.99 73.37 5.96 73.16 5.96ZM81.06 9.67C81.06 7.57 79.90 5.95 77.74 5.95C75.60 5.95 74.10 7.53 74.10 9.88C74.10 12.52 75.60 13.78 77.59 13.78C79.21 13.78 80.63 12.94 80.95 11.17L79.39 11.17C79.24 12.11 78.54 12.66 77.64 12.66C76.64 12.66 75.82 12.07 75.70 10.29L81.03 10.29C81.06 10.02 81.06 9.81 81.06 9.67ZM77.69 7.07C78.76 7.07 79.37 7.84 79.48 9.21L75.71 9.21C75.88 7.78 76.64 7.07 77.69 7.07ZM84.92 5.95C83.27 5.95 82.18 6.79 82.18 8.18C82.18 9.48 83.19 10.05 84.55 10.40C85.81 10.74 86.31 11.09 86.31 11.73C86.31 12.38 85.74 12.68 85.02 12.68C84.25 12.68 83.62 12.31 83.44 11.35L81.89 11.35C82.10 13.03 83.31 13.78 84.97 13.78C86.59 13.78 87.86 13.06 87.86 11.62C87.86 10.30 87.01 9.66 85.39 9.24C84.28 8.95 83.73 8.67 83.73 7.99C83.73 7.43 84.08 7.03 84.81 7.03C85.57 7.03 86.03 7.49 86.18 8.27L87.75 8.27C87.58 6.92 86.63 5.95 84.92 5.95ZM91.59 5.95C89.94 5.95 88.84 6.79 88.84 8.18C88.84 9.48 89.85 10.05 91.21 10.40C92.47 10.74 92.97 11.09 92.97 11.73C92.97 12.38 92.40 12.68 91.69 12.68C90.92 12.68 90.29 12.31 90.10 11.35L88.55 11.35C88.76 13.03 89.98 13.78 91.63 13.78C93.25 13.78 94.53 13.06 94.53 11.62C94.53 10.30 93.67 9.66 92.05 9.24C90.94 8.95 90.40 8.67 90.40 7.99C90.40 7.43 90.75 7.03 91.48 7.03C92.23 7.03 92.69 7.49 92.85 8.27L94.42 8.27C94.25 6.92 93.30 5.95 91.59 5.95Z"></path></g><!----><g data-v-423bf9ae="" id="b7e820b8-d0e3-41ab-a5c2-76483c169008" transform="matrix(3.02033690133878,0,0,3.02033690133878,0.6746095785795205,-6.44676146975133)" stroke="none" fill="black"><circle cx="25.044" cy="25.043" r="6.956"></circle><circle cx="6.956" cy="25.043" r="6.956"></circle><path d="M.172 2.201H13.74v13.568H.172zM18.432 2.201H32v13.568H18.432z"></path></g><!----></svg>